<?xml version="1.0" standalone="no"?>
<!DOCTYPE svg PUBLIC "-//W3C//DTD SVG 20010904//EN"
 "http://www.w3.org/TR/2001/REC-SVG-20010904/DTD/svg10.dtd">
<svg version="1.0" xmlns="http://www.w3.org/2000/svg"
 width="768.000000pt" height="1300.000000pt" viewBox="0 0 768.000000 1300.000000"
 preserveAspectRatio="xMidYMid meet">

<g transform="translate(0.000000,1300.000000) scale(0.100000,-0.100000)"
fill="#000000" stroke="none">
<path d="M0 6500 l0 -6500 3840 0 3840 0 0 6500 0 6500 -3840 0 -3840 0 0
-6500z m4208 2715 c81 -19 911 -298 979 -329 106 -49 225 -146 299 -246 53
-72 105 -194 125 -295 13 -67 12 -235 -1 -288 -6 -23 -68 -214 -138 -424 -70
-210 -124 -384 -121 -387 3 -3 174 -62 380 -132 206 -69 404 -141 440 -160
144 -76 251 -187 324 -339 71 -147 93 -318 61 -472 -15 -70 -299 -917 -335
-997 -45 -103 -155 -232 -253 -298 -137 -93 -264 -132 -428 -131 -137 1 -132
0 -603 158 -191 65 -350 115 -353 113 -2 -3 -61 -171 -129 -374 -69 -203 -141
-400 -160 -439 -69 -141 -182 -252 -337 -330 -121 -60 -209 -78 -361 -73
l-122 4 -470 158 c-468 158 -569 198 -656 262 -181 132 -299 373 -299 609 0
95 26 192 155 571 69 202 125 369 125 373 0 7 -38 21 -460 162 -383 129 -438
157 -561 287 -119 126 -184 272 -204 457 -13 113 9 203 144 607 226 674 224
669 351 798 124 125 271 198 448 221 149 19 206 6 649 -143 216 -73 394 -130
396 -128 2 3 61 176 131 385 71 209 144 411 164 448 19 38 67 102 105 144 155
165 326 242 542 242 63 1 136 -6 173 -14z"/>
<path d="M1943 6848 c-105 -315 -190 -574 -188 -576 3 -4 312 -62 329 -62 6 0
46 105 89 233 l77 234 93 -19 c132 -26 293 -25 380 2 97 30 162 86 210 180
109 216 54 369 -163 451 -27 10 -170 41 -317 69 -147 28 -279 53 -293 55 -25
5 -27 0 -217 -567z m600 381 c21 -6 52 -23 69 -38 43 -38 50 -117 18 -211 -40
-122 -105 -194 -191 -214 -24 -5 -137 8 -146 18 -3 3 30 109 72 236 l78 231
31 -6 c17 -4 48 -11 69 -16z"/>
<path d="M3195 7211 c-3 -6 -89 -257 -190 -558 -101 -302 -186 -556 -190 -565
-5 -13 -1 -19 17 -22 63 -14 779 -146 791 -146 8 0 23 23 35 53 18 47 18 53 3
59 -14 6 -445 88 -463 88 -5 0 301 929 338 1024 3 9 -42 21 -153 41 -87 15
-163 30 -169 32 -7 2 -15 0 -19 -6z"/>
<path d="M3945 6631 c-138 -413 -140 -421 -140 -508 0 -74 4 -96 25 -137 64
-126 257 -203 489 -194 94 3 114 7 174 35 78 37 148 104 190 181 26 47 297
840 297 868 0 12 -96 31 -106 21 -3 -3 -66 -184 -140 -403 -74 -220 -144 -418
-155 -441 -28 -58 -107 -129 -160 -143 -90 -25 -229 10 -265 66 -39 58 -27
111 124 562 77 229 143 424 147 433 5 14 -14 20 -132 42 -76 14 -154 29 -173
32 l-35 5 -140 -419z"/>
<path d="M5341 6799 c-64 -12 -162 -61 -209 -104 -112 -100 -156 -286 -98
-408 33 -69 44 -81 166 -177 182 -144 220 -187 220 -251 0 -50 -45 -118 -93
-140 -93 -42 -258 -8 -327 66 -22 23 -25 36 -25 98 0 71 2 78 63 200 2 4 -36
7 -85 5 l-88 -3 -22 -65 c-41 -121 -20 -239 55 -302 110 -92 357 -144 517
-108 103 23 204 91 256 171 93 146 95 296 4 415 -13 17 -86 78 -162 134 -201
150 -233 184 -233 247 0 38 33 89 72 113 73 44 262 13 327 -54 42 -43 52 -107
26 -176 -32 -87 -37 -80 53 -80 l81 0 12 43 c32 118 2 232 -75 289 -107 79
-291 116 -435 87z"/>
</g>
</svg>
